HIERARCHY
ROOT joint_Root
{
	OFFSET 0.0 0.0 0.0
	CHANNELS 6 Xposition Yposition Zposition Zrotation Xrotation Yrotation 
	JOINT Hips
	{
		OFFSET 4.5925 91.4895 -427.239
		CHANNELS 6 Xposition Yposition Zposition Zrotation Xrotation Yrotation 
		JOINT Spine
		{
			OFFSET 15.7357 0.0 0.0
			CHANNELS 6 Xposition Yposition Zposition Zrotation Xrotation Yrotation 
			JOINT Chest
			{
				OFFSET 8.98455 -0.406207 0.0
				CHANNELS 6 Xposition Yposition Zposition Zrotation Xrotation Yrotation 
				JOINT Neck
				{
					OFFSET 16.3773 0.0 0.0
					CHANNELS 6 Xposition Yposition Zposition Zrotation Xrotation Yrotation 
					JOINT Head
					{
						OFFSET 6.45672 0.0 0.0
						CHANNELS 6 Xposition Yposition Zposition Zrotation Xrotation Yrotation 
						End Site
						{
							OFFSET 0.0 0.0 0.0
						}
					}
				}
				JOINT Shoulder_L
				{
					OFFSET 12.9942 -0.242716 4.98039
					CHANNELS 6 Xposition Yposition Zposition Zrotation Xrotation Yrotation 
					JOINT UpperArm_L
					{
						OFFSET 5.34809 0.0 0.0
						CHANNELS 6 Xposition Yposition Zposition Zrotation Xrotation Yrotation 
						JOINT LowerArm_L
						{
							OFFSET 24.3286 1.87007e-05 0.0
							CHANNELS 6 Xposition Yposition Zposition Zrotation Xrotation Yrotation 
							JOINT Hand_L
							{
								OFFSET 22.2916 0.0 0.0
								CHANNELS 6 Xposition Yposition Zposition Zrotation Xrotation Yrotation 
								End Site
								{
									OFFSET 0.0 0.0 0.0
								}
							}
						}
					}
				}
				JOINT Shoulder_R
				{
					OFFSET 12.9945 -0.242716 -4.98039
					CHANNELS 6 Xposition Yposition Zposition Zrotation Xrotation Yrotation 
					JOINT UpperArm_R
					{
						OFFSET -5.34813 0.0 0.0
						CHANNELS 6 Xposition Yposition Zposition Zrotation Xrotation Yrotation 
						JOINT LowerArm_R
						{
							OFFSET -24.3289 0.000322201 0.0
							CHANNELS 6 Xposition Yposition Zposition Zrotation Xrotation Yrotation 
							JOINT Hand_R
							{
								OFFSET -22.2915 -0.000108084 0.0
								CHANNELS 6 Xposition Yposition Zposition Zrotation Xrotation Yrotation 
								End Site
								{
									OFFSET 0.0 0.0 0.0
								}
							}
						}
					}
				}
			}
		}
		JOINT UpperLeg_L
		{
			OFFSET -2.19248 -6.46944 0.0
			CHANNELS 6 Xposition Yposition Zposition Zrotation Xrotation Yrotation 
			JOINT LowerLeg_L
			{
				OFFSET 39.0811 0.0 -1.23785e-05
				CHANNELS 6 Xposition Yposition Zposition Zrotation Xrotation Yrotation 
				JOINT Foot_L
				{
					OFFSET 40.9854 0.0 -1.26872e-05
					CHANNELS 6 Xposition Yposition Zposition Zrotation Xrotation Yrotation 
					JOINT Toes_L
					{
						OFFSET 11.7543 0.0 0.0
						CHANNELS 6 Xposition Yposition Zposition Zrotation Xrotation Yrotation 
						End Site
						{
							OFFSET 0.0 0.0 0.0
						}
					}
				}
			}
		}
		JOINT UpperLeg_R
		{
			OFFSET -2.19251 6.46944 0.0
			CHANNELS 6 Xposition Yposition Zposition Zrotation Xrotation Yrotation 
			JOINT LowerLeg_R
			{
				OFFSET -39.0811 -0.00228153 -0.0401928
				CHANNELS 6 Xposition Yposition Zposition Zrotation Xrotation Yrotation 
				JOINT Foot_R
				{
					OFFSET -40.9854 0.0 0.0
					CHANNELS 6 Xposition Yposition Zposition Zrotation Xrotation Yrotation 
					JOINT Toes_R
					{
						OFFSET -11.7543 0.0 0.0
						CHANNELS 6 Xposition Yposition Zposition Zrotation Xrotation Yrotation 
						End Site
						{
							OFFSET 0.0 0.0 0.0
						}
					}
				}
			}
		}
	}
}
MOTION
Frames:	4
Frame Time:	0.0333333
0.000000 0.000000 0.000000 0.000000 0.000000 -0.000000 0.008717 91.627500 -0.255569 89.751400 -1.851740 3.637070 15.735700 0.000005 -0.000001 87.056500 87.423700 -87.267300 8.984550 -0.406207 -0.000000 -2.620690 -0.245391 -0.427196 16.377300 -0.000001 -0.000001 4.956610 -3.170380 2.309110 6.456720 -0.000001 -0.000000 -1.272210 -2.807890 1.243120 12.994200 -0.242716 4.980390 -84.680200 -10.477500 -62.885400 5.348090 -0.000007 -0.000001 -43.505800 -56.046900 -93.197700 24.328600 0.000019 0.000005 13.825600 10.752900 -52.838900 22.291600 -0.000001 0.000005 25.303400 5.428410 -3.884410 12.994500 -0.242716 -4.980390 93.952000 -10.009500 -68.323500 -5.348130 -0.000001 -0.000004 -42.076100 -54.447200 -93.449900 -24.328900 0.000322 -0.000009 4.681240 3.815530 -50.911500 -22.291500 -0.000108 -0.000004 19.561900 5.582610 -10.350500 -2.192480 -6.469440 -0.000000 -176.666000 -12.520700 -4.414410 39.081100 -0.000007 -0.000012 -0.141792 0.289138 26.123400 40.985400 -0.000006 -0.000013 0.258831 5.070260 -68.033400 11.754300 -0.000000 0.000003 -0.000218 -0.001992 -16.652500 -2.192510 6.469440 -0.000001 175.598000 22.324100 177.707000 -39.081100 -0.002282 -0.040193 -0.013138 0.034556 25.455000 -40.985400 0.000008 0.000006 6.123730 13.719400 -70.166600 -11.754300 -0.000006 -0.000006 -0.000726 -0.011436 -17.038400
0.000000 0.000000 0.000000 0.000000 0.000000 -0.000000 0.007124 91.623100 -0.316891 89.740600 -1.942370 3.640750 15.735700 0.000005 -0.000001 87.670400 87.354800 -87.899600 8.984550 -0.406207 -0.000000 -2.480340 -0.194487 -0.462743 16.377300 -0.000001 -0.000001 4.852920 -3.183030 2.331220 6.456720 -0.000001 -0.000000 -1.290660 -2.813420 1.391200 12.994200 -0.242716 4.980390 -84.925600 -10.060200 -63.054000 5.348090 -0.000007 -0.000001 -43.239900 -55.513600 -90.846600 24.328600 0.000019 0.000005 8.939470 6.023820 -56.307400 22.291600 -0.000001 0.000005 24.688300 5.436830 -4.175130 12.994500 -0.242716 -4.980390 93.664800 -9.473990 -68.737800 -5.348130 -0.000001 -0.000004 -40.528500 -54.194200 -90.377400 -24.328900 0.000322 -0.000009 3.426980 2.516700 -53.764900 -22.291500 -0.000108 -0.000004 18.760600 5.564450 -9.405760 -2.192480 -6.469440 -0.000000 -176.657000 -12.628200 -4.480910 39.081100 -0.000007 -0.000012 -0.140687 0.286026 26.191300 40.985400 -0.000006 -0.000013 0.268272 5.069100 -68.026700 11.754300 -0.000000 0.000003 -0.000222 -0.002019 -16.653500 -2.192510 6.469440 -0.000001 175.607000 22.264300 177.632000 -39.081100 -0.002282 -0.040193 -0.019802 0.048469 25.495000 -40.985400 0.000008 0.000006 5.970310 13.811400 -70.095200 -11.754300 -0.000006 -0.000006 -0.000734 -0.011552 -17.043100
0.000000 0.000000 0.000000 0.000000 0.000000 -0.000000 0.011707 91.618300 -0.381446 89.750900 -1.987790 3.705950 15.735700 0.000005 -0.000001 88.252100 87.242000 -88.502100 8.984550 -0.406207 -0.000000 -2.252820 -0.146354 -0.502922 16.377300 -0.000001 -0.000001 4.548820 -3.253320 2.357870 6.456720 -0.000001 -0.000000 -1.294200 -2.817470 1.498010 12.994200 -0.242716 4.980390 -85.327300 -9.392570 -63.396900 5.348090 -0.000007 -0.000001 -42.887900 -54.572100 -87.507300 24.328600 0.000019 0.000005 4.862290 2.598480 -61.962200 22.291600 -0.000001 0.000005 23.949900 5.439450 -4.266450 12.994500 -0.242716 -4.980390 93.304800 -8.770380 -69.257700 -5.348130 -0.000001 -0.000004 -38.501300 -53.576000 -85.882600 -24.328900 0.000322 -0.000009 2.412710 1.487020 -58.390900 -22.291500 -0.000108 -0.000004 17.620800 5.533030 -7.924000 -2.192480 -6.469440 -0.000000 -176.646000 -12.733300 -4.484820 39.081100 -0.000007 -0.000012 -0.142166 0.288321 26.247200 40.985400 -0.000006 -0.000013 0.291549 5.139740 -68.009600 11.754300 -0.000000 0.000003 -0.000213 -0.001955 -16.651200 -2.192510 6.469440 -0.000001 175.573000 22.274300 177.608000 -39.081100 -0.002282 -0.040193 -0.023602 0.056242 25.571700 -40.985400 0.000008 0.000006 5.936080 13.881800 -70.071300 -11.754300 -0.000006 -0.000006 -0.000710 -0.011192 -17.028500
0.000000 0.000000 0.000000 0.000000 0.000000 -0.000000 0.008923 91.599100 -0.461241 89.778700 -1.929850 3.852800 15.735700 0.000005 -0.000001 88.720300 87.087600 -88.990100 8.984550 -0.406207 -0.000000 -1.942880 -0.107203 -0.541376 16.377300 -0.000001 -0.000001 4.148820 -3.323790 2.325200 6.456720 -0.000001 -0.000000 -1.356360 -2.951360 1.614570 12.994200 -0.242716 4.980390 -85.805100 -8.607240 -63.891500 5.348090 -0.000007 -0.000001 -42.774200 -53.041000 -83.154600 24.328600 0.000019 0.000005 3.922760 1.453840 -69.689400 22.291600 -0.000001 0.000005 22.813400 5.431850 -4.002240 12.994500 -0.242716 -4.980390 92.872700 -7.776210 -69.651600 -5.348130 -0.000001 -0.000004 -36.245200 -52.231700 -80.351800 -24.328900 0.000322 -0.000009 1.705820 0.812172 -64.580200 -22.291500 -0.000108 -0.000004 16.312400 5.495780 -6.360130 -2.192480 -6.469440 -0.000000 -176.648000 -12.751100 -4.478410 39.081100 -0.000007 -0.000012 -0.141926 0.285975 26.394800 40.985400 -0.000006 -0.000013 0.319053 5.199040 -68.017500 11.754300 -0.000000 0.000003 -0.000230 -0.002085 -16.655900 -2.192510 6.469440 -0.000001 175.483000 22.256900 177.638000 -39.081100 -0.002282 -0.040193 -0.032966 0.075308 25.720500 -40.985400 0.000008 0.000006 5.719410 13.880100 -70.030600 -11.754300 -0.000006 -0.000006 -0.000643 -0.010203 -16.988300
